HIERARCHY
ROOT hip
{
  OFFSET 0 0 0
  CHANNELS 6 Xposition Yposition Zposition Zrotation Yrotation Xrotation
  JOINT abdomen
  {
    OFFSET 0 20.6881 -0.73152
    CHANNELS 3 Zrotation Xrotation Yrotation
    JOINT chest
    {
      OFFSET 0 11.7043 -0.48768
      CHANNELS 3 Zrotation Xrotation Yrotation
      JOINT neck
      {
        OFFSET 0 22.1894 -2.19456
        CHANNELS 3 Zrotation Xrotation Yrotation
        JOINT head
        {
          OFFSET -0.24384 7.07133 1.2192
          CHANNELS 3 Zrotation Xrotation Yrotation
          JOINT leftEye
          {
            OFFSET 4.14528 8.04674 8.04672
            CHANNELS 3 Zrotation Xrotation Yrotation
            End Site
            {
              OFFSET 1 0 0
            }
          }
          JOINT rightEye
          {
            OFFSET -3.6576 8.04674 8.04672
            CHANNELS 3 Zrotation Xrotation Yrotation
            End Site
            {
              OFFSET 1 0 0
            }
          }
        }
      }
      JOINT rCollar
      {
        OFFSET -2.68224 19.2634 -4.8768
        CHANNELS 3 Zrotation Xrotation Yrotation
        JOINT rShldr
        {
          OFFSET -8.77824 -1.95073 1.46304
          CHANNELS 3 Zrotation Xrotation Yrotation
          JOINT rForeArm
          {
            OFFSET -28.1742 -1.7115 0.48768
            CHANNELS 3 Zrotation Xrotation Yrotation
            JOINT rHand
            {
              OFFSET -22.5879 0.773209 7.07136
              CHANNELS 3 Zrotation Xrotation Yrotation
              JOINT rThumb1
              {
                OFFSET -1.2192 -0.487915 3.41376
                CHANNELS 3 Zrotation Xrotation Yrotation
                JOINT rThumb2
                {
                  OFFSET -3.37035 -0.52449 3.41376
                  CHANNELS 3 Zrotation Xrotation Yrotation
                  End Site
                  {
                    OFFSET -1.78271 -1.18214 1.43049
                  }
                }
              }
              JOINT rIndex1
              {
                OFFSET -7.75947 0.938293 5.60832
                CHANNELS 3 Zrotation Xrotation Yrotation
                JOINT rIndex2
                {
                  OFFSET -2.54057 -0.884171 1.56538
                  CHANNELS 3 Zrotation Xrotation Yrotation
                  End Site
                  {
                    OFFSET -1.62519 -0.234802 1.16502
                  }
                }
              }
              JOINT rMid1
              {
                OFFSET -8.24714 1.18213 3.41376
                CHANNELS 3 Zrotation Xrotation Yrotation
                JOINT rMid2
                {
                  OFFSET -3.10165 -0.590103 1.0647
                  CHANNELS 3 Zrotation Xrotation Yrotation
                  End Site
                  {
                    OFFSET -2.48547 -0.328903 0.83742
                  }
                }
              }
              JOINT rRing1
              {
                OFFSET -8.82822 0.546677 1.51678
                CHANNELS 3 Zrotation Xrotation Yrotation
                JOINT rRing2
                {
                  OFFSET -2.60934 -0.819778 -0.0198488
                  CHANNELS 3 Zrotation Xrotation Yrotation
                  End Site
                  {
                    OFFSET -2.33842 -0.294052 0.168128
                  }
                }
              }
              JOINT rPinky1
              {
                OFFSET -8.27202 -0.0477905 -0.4584
                CHANNELS 3 Zrotation Xrotation Yrotation
                JOINT rPinky2
                {
                  OFFSET -1.82734 -0.647385 -0.700984
                  CHANNELS 3 Zrotation Xrotation Yrotation
                  End Site
                  {
                    OFFSET -1.69225 -0.51767 -0.607171
                  }
                }
              }
            }
          }
        }
      }
      JOINT lCollar
      {
        OFFSET 2.68224 19.2634 -4.8768
        CHANNELS 3 Zrotation Xrotation Yrotation
        JOINT lShldr
        {
          OFFSET 8.77824 -1.95073 1.46304
          CHANNELS 3 Zrotation Xrotation Yrotation
          JOINT lForeArm
          {
            OFFSET 28.1742 -1.7115 0.48768
            CHANNELS 3 Zrotation Xrotation Yrotation
            JOINT lHand
            {
              OFFSET 22.5879 0.773209 7.07136
              CHANNELS 3 Zrotation Xrotation Yrotation
              JOINT lThumb1
              {
                OFFSET 1.2192 -0.487915 3.41376
                CHANNELS 3 Zrotation Xrotation Yrotation
                JOINT lThumb2
                {
                  OFFSET 3.37035 -0.52449 3.41376
                  CHANNELS 3 Zrotation Xrotation Yrotation
                  End Site
                  {
                    OFFSET 1.78271 -1.18214 1.43049
                  }
                }
              }
              JOINT lIndex1
              {
                OFFSET 7.75947 0.938293 5.60832
                CHANNELS 3 Zrotation Xrotation Yrotation
                JOINT lIndex2
                {
                  OFFSET 2.54057 -0.884171 1.56538
                  CHANNELS 3 Zrotation Xrotation Yrotation
                  End Site
                  {
                    OFFSET 1.62519 -0.234802 1.16502
                  }
                }
              }
              JOINT lMid1
              {
                OFFSET 8.24714 1.18213 3.41376
                CHANNELS 3 Zrotation Xrotation Yrotation
                JOINT lMid2
                {
                  OFFSET 3.10165 -0.590103 1.0647
                  CHANNELS 3 Zrotation Xrotation Yrotation
                  End Site
                  {
                    OFFSET 2.48547 -0.328903 0.83742
                  }
                }
              }
              JOINT lRing1
              {
                OFFSET 8.82822 0.546677 1.51678
                CHANNELS 3 Zrotation Xrotation Yrotation
                JOINT lRing2
                {
                  OFFSET 2.60934 -0.819778 -0.0198488
                  CHANNELS 3 Zrotation Xrotation Yrotation
                  End Site
                  {
                    OFFSET 2.33842 -0.294052 0.168128
                  }
                }
              }
              JOINT lPinky1
              {
                OFFSET 8.27202 -0.0477905 -0.4584
                CHANNELS 3 Zrotation Xrotation Yrotation
                JOINT lPinky2
                {
                  OFFSET 1.82734 -0.647385 -0.700984
                  CHANNELS 3 Zrotation Xrotation Yrotation
                  End Site
                  {
                    OFFSET 1.69225 -0.51767 -0.607171
                  }
                }
              }
            }
          }
        }
      }
    }
  }
  JOINT rButtock
  {
    OFFSET -8.77824 4.35084 1.2192
    CHANNELS 3 Zrotation Xrotation Yrotation
    JOINT rThigh
    {
      OFFSET 0 -1.70687 -2.19456
      CHANNELS 3 Zrotation Xrotation Yrotation
      JOINT rShin
      {
        OFFSET 0 -36.8199 0.73152
        CHANNELS 3 Zrotation Xrotation Yrotation
        JOINT rFoot
        {
          OFFSET 0.73152 -45.1104 -5.12064
          CHANNELS 3 Zrotation Xrotation Yrotation
          End Site
          {
            OFFSET -1.1221 -3.69964 12.103
          }
        }
      }
    }
  }
  JOINT lButtock
  {
    OFFSET 8.77824 4.35084 1.2192
    CHANNELS 3 Zrotation Xrotation Yrotation
    JOINT lThigh
    {
      OFFSET 0 -1.70687 -2.19456
      CHANNELS 3 Zrotation Xrotation Yrotation
      JOINT lShin
      {
        OFFSET 0 -36.8199 0.73152
        CHANNELS 3 Zrotation Xrotation Yrotation
        JOINT lFoot
        {
          OFFSET -0.73152 -45.1104 -5.12064
          CHANNELS 3 Zrotation Xrotation Yrotation
          End Site
          {
            OFFSET 1.1221 -3.69964 12.103
          }
        }
      }
    }
  }
}
MOTION
Frames:	4
Frame Time:	0.00833333
14.6799 92.7647 112.211 -178.748 0.5384 -145.654 1.70797 -17.0146 -1.22654 1.02548 11.9186 -0.385126 1.56593 12.6582 -4.51789 1.47165 -4.93716 -6.45386 -0.0 0.0 0.0 -0.0 0.0 0.0 -2.47379e-14 -2.26599e-14 -4.72331e-14 74.605 14.3568 -1.53544 -20.7321 -13.9611 40.4889 -0.0623147 -7.10425 -1.00364 7.32575e-10 -1.36096e-09 -4.42967e-10 1.27116e-09 -2.35747e-09 -7.62964e-10 7.32595e-10 -1.36096e-09 -4.42977e-10 7.73091 5.47488 0.417314 7.32573e-10 -1.36096e-09 -4.42965e-10 2.90554 0.965183 0.102902 7.32584e-10 -1.36096e-09 -4.42967e-10 10.2786 0.731801 0.0259123 7.3257e-10 -1.36096e-09 -4.42965e-10 2.22167 -0.733487 -0.20892 -2.47859e-14 -2.26633e-14 -4.75157e-14 -72.1448 25.5358 -3.60652 16.4613 -9.123 -30.6528 0.00304722 -1.61038 0.22638 2.38171e-11 -4.95236e-10 -5.55396e-10 3.91801e-11 -8.57323e-10 -9.62027e-10 2.38181e-11 -4.95229e-10 -5.55381e-10 -7.73091 5.47488 -0.417314 2.38212e-11 -4.95227e-10 -5.55399e-10 -2.90554 0.965183 -0.102902 2.38234e-11 -4.95226e-10 -5.55395e-10 -10.2786 0.731801 -0.0259123 2.38197e-11 -4.95225e-10 -5.5541e-10 -2.22167 -0.733487 0.20892 -2.03217e-16 0.0 -3.88251e-19 3.78094 -63.9831 8.15409 -0.252209 35.4728 0.655679 -1.74478 -13.1173 -4.56891 2.03217e-16 0.0 3.88251e-19 9.69419 -38.1919 -11.5522 0.0437157 19.5831 -0.235643 -3.66851 20.702 12.9158
14.8243 93.1522 111.928 -179.328 0.419 -146.228 1.03782 -16.3918 -1.33052 1.20429 11.9007 -0.428322 1.72299 12.7001 -4.48602 1.48383 -5.05924 -6.40281 -0.0 0.0 0.0 -0.0 0.0 0.0 -9.37463e-15 -2.38013e-14 -1.52579e-14 74.6019 14.2388 -1.36509 -20.7966 -14.0477 40.6512 -0.0618545 -7.0784 -0.999948 9.07165e-10 -1.54997e-09 -5.52065e-10 1.57529e-09 -2.68461e-09 -9.50473e-10 9.07176e-10 -1.54997e-09 -5.52079e-10 7.73091 5.47488 0.417314 9.07164e-10 -1.54997e-09 -5.52066e-10 2.90554 0.965183 0.102902 9.0717e-10 -1.54997e-09 -5.52065e-10 10.2786 0.731801 0.0259123 9.07159e-10 -1.54996e-09 -5.5206e-10 2.22167 -0.733487 -0.20892 -9.5136e-15 -2.38084e-14 -1.56155e-14 -72.0045 25.6894 -3.51755 16.4579 -9.11969 -30.6453 0.00401712 -1.83005 0.257282 -4.58181e-10 -9.76281e-10 -6.28282e-10 -7.95799e-10 -1.69004e-09 -1.08733e-09 -4.58183e-10 -9.76277e-10 -6.28266e-10 -7.73091 5.47488 -0.417314 -4.58181e-10 -9.76275e-10 -6.28289e-10 -2.90554 0.965183 -0.102902 -4.58172e-10 -9.76273e-10 -6.28279e-10 -10.2786 0.731801 -0.0259123 -4.58176e-10 -9.76272e-10 -6.28297e-10 -2.22167 -0.733487 0.20892 -2.03217e-16 0.0 -3.88251e-19 2.33882 -62.5582 7.0256 -0.231379 34.0887 0.618175 -1.74727 -12.6973 -4.72301 2.03217e-16 0.0 3.88251e-19 8.72748 -38.2234 -11.7619 0.0548543 20.439 -0.251359 -2.80761 20.1625 10.6368
14.9515 93.5274 111.652 -179.955 0.2453 -146.797 0.171737 -15.5996 -1.37579 1.47555 11.7748 -0.456599 1.80778 12.7197 -4.45812 1.4723 -5.12024 -6.3529 -0.0 0.0 0.0 -0.0 0.0 0.0 -1.09782e-15 2.54485e-14 1.78906e-15 74.5799 14.1405 -1.2391 -20.8648 -14.1398 40.823 -0.0618524 -7.07867 -0.999986 7.16366e-10 -1.11295e-09 -4.24194e-10 1.24484e-09 -1.92856e-09 -7.30806e-10 7.16369e-10 -1.11294e-09 -4.2421e-10 7.73091 5.47488 0.417314 7.16365e-10 -1.11294e-09 -4.24197e-10 2.90554 0.965183 0.102902 7.16368e-10 -1.11294e-09 -4.24194e-10 10.2786 0.731801 0.0259123 7.16359e-10 -1.11294e-09 -4.24187e-10 2.22167 -0.733487 -0.20892 -1.28762e-15 2.54394e-14 1.39149e-15 -71.9283 25.8246 -3.39657 16.4561 -9.11804 -30.6415 0.00492602 -2.0036 0.281704 -7.17058e-10 -9.44399e-10 -4.0726e-10 -1.24337e-09 -1.63556e-09 -7.04595e-10 -7.17061e-10 -9.44397e-10 -4.07245e-10 -7.73091 5.47488 -0.417314 -7.17059e-10 -9.44395e-10 -4.0727e-10 -2.90554 0.965183 -0.102902 -7.17048e-10 -9.44393e-10 -4.07257e-10 -10.2786 0.731801 -0.0259123 -7.1705e-10 -9.44392e-10 -4.07276e-10 -2.22167 -0.733487 0.20892 -2.03217e-16 0.0 -3.88251e-19 1.00645 -61.1399 6.24573 -0.213168 32.8177 0.58225 -1.72998 -12.3252 -4.80678 2.03217e-16 0.0 3.88251e-19 7.50393 -38.1934 -12.0418 0.0685114 21.4812 -0.267922 -2.14604 19.2207 9.05967
14.9605 93.8753 111.363 -181.063 0.6036 -147.832 -1.00417 -14.5574 -1.34404 1.89632 11.4856 -0.466255 1.78053 12.7038 -4.43194 1.42141 -5.09897 -6.29858 -0.0 0.0 0.0 -0.0 0.0 0.0 -3.95554e-16 1.64076e-13 -4.50682e-15 74.5118 14.0697 -1.16761 -20.9405 -14.2428 41.0145 -0.0624529 -7.11287 -1.00487 -1.29216e-10 4.44357e-10 1.18733e-10 -2.22566e-10 7.65871e-10 2.02044e-10 -1.29216e-10 4.44358e-10 1.18718e-10 7.73091 5.47488 0.417314 -1.29218e-10 4.44358e-10 1.18729e-10 2.90554 0.965183 0.102902 -1.29213e-10 4.44358e-10 1.18732e-10 10.2786 0.731801 0.0259123 -1.29224e-10 4.44361e-10 1.1874e-10 2.22167 -0.733487 -0.20892 -5.71951e-16 1.64067e-13 -4.89041e-15 -71.9581 25.9309 -3.22486 16.4637 -9.12522 -30.6578 0.00565208 -2.13503 0.300202 -6.19107e-10 -3.62214e-11 3.33523e-10 -1.07114e-09 -6.54147e-11 5.76711e-10 -6.1911e-10 -3.62193e-11 3.33538e-10 -7.73091 5.47488 -0.417314 -6.19107e-10 -3.6218e-11 3.33515e-10 -2.90554 0.965183 -0.102902 -6.19101e-10 -3.62153e-11 3.33528e-10 -10.2786 0.731801 -0.0259123 -6.19101e-10 -3.62148e-11 3.3351e-10 -2.22167 -0.733487 0.20892 -2.03217e-16 0.0 -3.88251e-19 -0.324949 -59.7585 5.83422 -0.197882 31.7034 0.547958 -1.68075 -12.0207 -4.76946 2.03217e-16 0.0 3.88251e-19 5.88838 -38.0902 -12.4591 0.0861099 22.7805 -0.285545 -1.7094 17.7622 8.36941
